<svg width="1138" height="1920" viewBox="0 0 1138 1920" fill="none" xmlns="http://www.w3.org/2000/svg">
<g clip-path="url(#clip0_4044_16312)">
<rect width="1920" height="1138" transform="matrix(0 -1 1 0 0 1920)" fill="#001B0C"/>
<path d="M357.768 897.345C329.368 965.745 369.601 1158.84 393.268 1246.84C406.387 1299.84 511.768 1246.84 553.268 1261.84C594.768 1276.84 662.768 1264.84 766.768 1226.34C870.768 1187.84 778.268 897.345 766.768 781.845C755.268 666.344 550.268 616.345 529.768 693.345C509.268 770.345 393.268 811.845 357.768 897.345Z" stroke="#DCE033" stroke-width="2" stroke-linejoin="round"/>
<path d="M318.467 885.66C285.127 965.901 332.359 1192.43 360.142 1295.66C375.543 1357.84 499.255 1295.66 547.974 1313.26C596.692 1330.86 676.521 1316.78 798.611 1271.61C920.701 1226.45 812.111 885.66 798.611 750.166C785.111 614.672 544.452 556.016 520.386 646.346C496.32 736.675 360.142 785.359 318.467 885.66Z" stroke="#DCE033" stroke-width="2" stroke-linejoin="round"/>
<path d="M265.765 870.114C225.745 966.381 282.44 1238.15 315.79 1362C334.277 1436.6 482.776 1362 541.256 1383.11C599.736 1404.23 695.559 1387.34 842.112 1333.15C988.665 1278.97 858.318 870.114 842.112 707.558C825.907 545.003 537.029 474.632 508.141 583.003C479.253 691.373 315.79 749.781 265.765 870.114Z" stroke="#DCE033" stroke-width="2" stroke-linejoin="round"/>
<path d="M214.979 855.216C168.521 966.84 234.336 1281.97 273.051 1425.58C294.511 1512.07 466.896 1425.58 534.783 1450.06C602.67 1474.54 713.906 1454.95 884.032 1392.12C1054.16 1329.3 902.844 855.216 884.032 666.726C865.22 478.237 529.875 396.64 496.341 522.299C462.806 647.959 273.051 715.684 214.979 855.216Z" stroke="#DCE033" stroke-width="2" stroke-linejoin="round"/>
<path d="M154.611 837.294C100.501 967.393 177.156 1334.68 222.247 1502.06C247.242 1602.86 448.02 1502.06 527.088 1530.59C606.156 1559.12 735.714 1536.29 933.86 1463.06C1132.01 1389.84 955.771 837.294 933.86 617.609C911.95 397.924 521.372 302.822 482.315 449.279C443.257 595.736 222.247 674.67 154.611 837.294Z" stroke="#DCE033" stroke-width="2" stroke-linejoin="round"/>
<path d="M6.08566 793.246C-66.8495 968.752 36.4753 1464.22 97.2546 1690.02C130.946 1826.01 401.579 1690.02 508.157 1728.51C614.735 1767 789.368 1736.21 1056.46 1637.42C1323.54 1538.63 1085.99 793.246 1056.46 496.887C1026.92 200.529 500.453 72.235 447.806 269.807C395.159 467.38 97.2546 573.864 6.08566 793.246Z" stroke="#DCE033" stroke-width="2" stroke-linejoin="round"/>
<path d="M-121.358 755.46C-210.447 969.918 -84.2379 1575.35 -9.99704 1851.26C31.1567 2017.44 361.73 1851.26 491.913 1898.29C622.096 1945.32 835.408 1907.7 1161.65 1786.99C1487.89 1666.28 1197.72 755.46 1161.65 393.327C1125.57 31.1946 482.502 -125.573 418.195 115.849C353.888 357.271 -9.99704 487.388 -121.358 755.46Z" stroke="#DCE033" stroke-width="2" stroke-linejoin="round"/>
<path d="M-188.434 735.595C-286.025 970.531 -147.771 1633.78 -66.4453 1936.03C-21.3641 2118.07 340.757 1936.03 483.363 1987.55C625.97 2039.07 859.639 1997.86 1217.01 1865.62C1574.39 1733.38 1256.53 735.595 1217.01 338.884C1177.5 -57.8269 473.055 -229.563 402.61 34.911C332.166 299.385 -66.4453 441.926 -188.434 735.595Z" stroke="#DCE033" stroke-width="2" stroke-linejoin="round"/>
<path d="M-287.131 706.446C-397.232 971.43 -241.256 1719.51 -149.505 2060.42C-98.6447 2265.74 309.896 2060.42 470.783 2118.53C631.671 2176.64 895.293 2130.15 1298.48 1981C1701.67 1831.85 1343.06 706.446 1298.48 258.995C1253.9 -188.456 459.153 -382.158 379.679 -83.8569C300.204 214.444 -149.505 375.216 -287.131 706.446Z" stroke="#DCE033" stroke-width="2" stroke-linejoin="round"/>
<path d="M-356.124 685.933C-474.97 972.063 -306.604 1779.83 -207.566 2147.95C-152.666 2369.66 288.324 2147.95 461.99 2210.7C635.656 2273.45 920.217 2223.25 1355.43 2062.2C1790.64 1901.15 1403.55 685.933 1355.43 202.776C1307.3 -280.38 449.435 -489.539 363.649 -167.435C277.862 154.67 -207.566 328.272 -356.124 685.933Z" stroke="#DCE033" stroke-width="2" stroke-linejoin="round"/>
<path d="M-444.28 659.807C-574.3 972.869 -390.105 1856.67 -281.755 2259.44C-221.694 2502.02 260.759 2259.44 450.753 2328.1C640.747 2396.75 952.063 2341.83 1428.19 2165.62C1904.32 1989.4 1480.84 659.807 1428.19 131.172C1375.54 -397.463 437.018 -626.309 343.166 -273.885C249.313 78.5376 -281.755 268.48 -444.28 659.807Z" stroke="#DCE033" stroke-width="2" stroke-linejoin="round"/>
<path d="M385.543 905.525C360.705 965.288 395.892 1134.01 416.59 1210.89C428.064 1257.2 520.228 1210.89 556.523 1224C592.818 1237.11 652.289 1226.62 743.246 1192.98C834.202 1159.34 753.303 905.525 743.246 804.609C733.188 703.693 553.899 660.006 535.971 727.284C518.042 794.561 416.59 830.821 385.543 905.525Z" stroke="#DCE033" stroke-width="2" stroke-linejoin="round"/>
<path d="M414.29 914.162C393.095 965.022 423.121 1108.6 440.783 1174.04C450.573 1213.45 529.217 1174.04 560.187 1185.19C591.158 1196.35 641.905 1187.42 719.518 1158.8C797.131 1130.17 728.1 914.162 719.518 828.28C710.936 742.398 557.948 705.22 542.65 762.474C527.351 819.729 440.783 850.587 414.29 914.162Z" stroke="#DCE033" stroke-width="2" stroke-linejoin="round"/>
<path d="M436.329 920.64C417.928 964.822 443.996 1089.55 459.33 1146.4C467.83 1180.63 536.108 1146.4 562.996 1156.09C589.885 1165.78 633.943 1158.02 701.326 1133.16C768.71 1108.29 708.777 920.64 701.326 846.033C693.875 771.427 561.053 739.13 547.77 788.867C534.488 838.605 459.33 865.411 436.329 920.64Z" stroke="#DCE033" stroke-width="2" stroke-linejoin="round"/>
<path d="M487.115 935.538C475.151 964.363 492.1 1045.74 502.069 1082.82C507.596 1105.16 551.988 1082.82 569.47 1089.14C586.952 1095.46 615.597 1090.41 659.407 1074.18C703.217 1057.96 664.251 935.538 659.407 886.865C654.562 838.193 568.206 817.122 559.57 849.571C550.934 882.019 502.069 899.508 487.115 935.538Z" stroke="#DCE033" stroke-width="2" stroke-linejoin="round"/>
<path d="M534.068 949.357C528.056 963.936 536.573 1005.09 541.583 1023.85C544.36 1035.15 566.669 1023.85 575.454 1027.05C584.24 1030.25 598.635 1027.69 620.651 1019.48C642.667 1011.28 623.086 949.357 620.651 924.739C618.217 900.121 574.819 889.463 570.479 905.876C566.14 922.288 541.583 931.133 534.068 949.357Z" stroke="#DCE033" stroke-width="2" stroke-linejoin="round"/>
<path d="M563.773 958.21C561.526 963.663 564.709 979.058 566.582 986.074C567.619 990.3 575.957 986.074 579.24 987.27C582.524 988.466 587.904 987.509 596.132 984.44C604.361 981.37 597.042 958.21 596.132 949.002C595.222 939.793 579.003 935.807 577.381 941.946C575.759 948.085 566.582 951.393 563.773 958.21Z" stroke="#DCE033" stroke-width="2" stroke-linejoin="round"/>
</g>
<defs>
<clipPath id="clip0_4044_16312">
<rect width="1920" height="1138" fill="white" transform="matrix(0 -1 1 0 0 1920)"/>
</clipPath>
</defs>
</svg>
