<svg width="120" height="59" viewBox="0 0 120 59" fill="none" xmlns="http://www.w3.org/2000/svg">
<path d="M0 11.1544C0 6.73608 3.58178 3.1543 8.00013 3.1543H18.9346V50.5867C18.9346 55.005 15.3528 58.5868 10.9344 58.5868H0V11.1544Z" fill="#DCE033"/>
<path d="M20.2881 28.2305H27.2798C36.1165 28.2305 43.2801 35.394 43.2801 44.2307V58.5864H28.2882C23.8699 58.5864 20.2881 55.0046 20.2881 50.5862V28.2305Z" fill="#DCE033"/>
<ellipse cx="31.497" cy="15.0796" rx="11.496" ry="11.8784" fill="#DCE033"/>
<path d="M47.3492 30.875L50.5243 13.2872C50.5409 13.2206 50.5826 13.1872 50.6493 13.1872H54.3618C54.4285 13.1872 54.4702 13.2206 54.4868 13.2872L57.5369 30.875C57.5452 30.9583 57.5119 31 57.4369 31H54.5993C54.516 31 54.4702 30.9583 54.4618 30.875L54.1868 29H50.6993L50.4243 30.875C50.4159 30.9583 50.3743 31 50.2993 31H47.4492C47.3826 31 47.3492 30.9583 47.3492 30.875ZM52.6243 19.0748L52.4743 18.1248L52.3618 19.0748L51.2118 26.2624H53.6743L52.6243 19.0748ZM63.2995 31.25C62.3745 31.25 61.5411 31.0208 60.7994 30.5625C60.0494 30.1042 59.4452 29.4875 58.9869 28.7125C58.5369 27.9375 58.3119 27.0708 58.3119 26.1124V17.9998C58.3119 17.0664 58.5411 16.2164 58.9994 15.4498C59.4494 14.6747 60.0536 14.0581 60.8119 13.5997C61.5703 13.1331 62.3995 12.8997 63.2995 12.8997C64.2412 12.8997 65.0912 13.1247 65.8495 13.5747C66.6079 14.0331 67.2079 14.6456 67.6495 15.4123C68.0995 16.1789 68.3245 17.0414 68.3245 17.9998V19.1748C68.3245 19.2415 68.2829 19.2748 68.1995 19.2748H65.3245C65.2578 19.2748 65.2245 19.2415 65.2245 19.1748V18.1998C65.2245 17.5498 65.0412 17.0123 64.6745 16.5873C64.3078 16.1623 63.8495 15.9498 63.2995 15.9498C62.8078 15.9498 62.3703 16.1539 61.9869 16.5623C61.6036 16.9706 61.4119 17.4498 61.4119 17.9998V26.1124C61.4119 26.6708 61.5994 27.1541 61.9744 27.5624C62.3495 27.9625 62.7911 28.1625 63.2995 28.1625C63.8495 28.1625 64.3078 27.9666 64.6745 27.5749C65.0412 27.1749 65.2245 26.6874 65.2245 26.1124V24.8499H63.437C63.3453 24.8499 63.2995 24.8082 63.2995 24.7249V21.8624C63.2995 21.779 63.3453 21.7374 63.437 21.7374H68.2245C68.2912 21.7374 68.3245 21.779 68.3245 21.8624V26.1124C68.3245 27.0708 68.0995 27.9375 67.6495 28.7125C67.1912 29.4875 66.587 30.1042 65.837 30.5625C65.087 31.0208 64.2412 31.25 63.2995 31.25Z" fill="#DCE033"/>
<path d="M53.6743 53.4004H50.7868C50.7118 53.4004 50.6743 53.3587 50.6743 53.2754V38.6752H47.3492C47.2659 38.6752 47.2242 38.6335 47.2242 38.5502L47.2492 35.6876C47.2492 35.6209 47.2826 35.5876 47.3492 35.5876H57.0744C57.166 35.5876 57.2119 35.6209 57.2119 35.6876V38.5502C57.2119 38.6335 57.1785 38.6752 57.1119 38.6752H53.7493L53.7743 53.2754C53.7743 53.3587 53.741 53.4004 53.6743 53.4004ZM66.837 53.4004H58.5619C58.4952 53.4004 58.4619 53.3587 58.4619 53.2754L58.4869 35.6876C58.4869 35.6209 58.5202 35.5876 58.5869 35.5876H66.812C66.8787 35.5876 66.912 35.6293 66.912 35.7126V38.5752C66.912 38.6418 66.8787 38.6752 66.812 38.6752H61.5619V42.6752H66.812C66.8787 42.6752 66.912 42.7086 66.912 42.7752L66.937 45.6753C66.937 45.7419 66.9037 45.7753 66.837 45.7753H61.5619V50.2503H66.837C66.9037 50.2503 66.937 50.292 66.937 50.3753V53.3004C66.937 53.3671 66.9037 53.4004 66.837 53.4004ZM68.3495 53.2754L71.5246 35.6876C71.5413 35.6209 71.5829 35.5876 71.6496 35.5876H75.3622C75.4288 35.5876 75.4705 35.6209 75.4872 35.6876L78.5372 53.2754C78.5455 53.3587 78.5122 53.4004 78.4372 53.4004H75.5997C75.5163 53.4004 75.4705 53.3587 75.4622 53.2754L75.1872 51.4004H71.6996L71.4246 53.2754C71.4163 53.3587 71.3746 53.4004 71.2996 53.4004H68.4496C68.3829 53.4004 68.3495 53.3587 68.3495 53.2754ZM73.6246 41.4752L73.4746 40.5252L73.3621 41.4752L72.2121 48.6628H74.6746L73.6246 41.4752ZM84.3248 53.6504C83.3998 53.6504 82.5539 53.4171 81.7873 52.9504C81.0289 52.4837 80.4247 51.8587 79.9747 51.0754C79.5331 50.2837 79.3122 49.4045 79.3122 48.4378L79.3372 40.4502C79.3372 39.5002 79.5539 38.6418 79.9872 37.8751C80.4206 37.1001 81.0164 36.4793 81.7748 36.0126C82.5414 35.5376 83.3914 35.3001 84.3248 35.3001C85.2748 35.3001 86.1207 35.5293 86.8623 35.9876C87.6123 36.446 88.2082 37.0668 88.6499 37.8501C89.0999 38.6252 89.3249 39.4918 89.3249 40.4502V41.6252C89.3249 41.6919 89.2915 41.7252 89.2249 41.7252H86.3498C86.2832 41.7252 86.2498 41.6919 86.2498 41.6252V40.4502C86.2498 39.8835 86.0665 39.396 85.6998 38.9877C85.3331 38.5793 84.8748 38.3752 84.3248 38.3752C83.7165 38.3752 83.2498 38.5835 82.9248 39.0002C82.5998 39.4168 82.4373 39.9002 82.4373 40.4502V48.4378C82.4373 49.0628 82.6206 49.5753 82.9873 49.9753C83.3539 50.367 83.7998 50.5628 84.3248 50.5628C84.8748 50.5628 85.3331 50.3462 85.6998 49.9128C86.0665 49.4712 86.2498 48.9795 86.2498 48.4378V47.2503C86.2498 47.1836 86.2832 47.1503 86.3498 47.1503H89.2499C89.3165 47.1503 89.3499 47.1836 89.3499 47.2503V48.4378C89.3499 49.3962 89.1249 50.2712 88.6749 51.0629C88.2165 51.8462 87.6123 52.4754 86.8623 52.9504C86.1123 53.4171 85.2665 53.6504 84.3248 53.6504ZM94.2125 53.4004H91.3124C91.2457 53.4004 91.2124 53.3587 91.2124 53.2754L91.2374 35.6876C91.2374 35.6209 91.2791 35.5876 91.3624 35.5876H94.2125C94.2958 35.5876 94.3375 35.6209 94.3375 35.6876L94.3125 42.6502H98.15V35.6876C98.15 35.6209 98.1833 35.5876 98.25 35.5876H101.1C101.183 35.5876 101.225 35.6209 101.225 35.6876L101.275 53.2754C101.275 53.3587 101.233 53.4004 101.15 53.4004H98.275C98.1917 53.4004 98.15 53.3587 98.15 53.2754V45.7503H94.3125V53.2754C94.3125 53.3587 94.2791 53.4004 94.2125 53.4004Z" fill="#DCE033"/>
</svg>
