<svg width="186" height="89" viewBox="0 0 186 89" fill="none" xmlns="http://www.w3.org/2000/svg">
<path d="M0 17.1304C0 10.3144 5.5254 4.78906 12.3413 4.78906H29.2095V76.6581C29.2095 83.474 23.6841 88.9994 16.8682 88.9994H0V17.1304Z" fill="#082214"/>
<path d="M31.2959 42.8838H42.0819C55.7138 42.8838 66.7646 53.9346 66.7646 67.5664V88.999H43.6372C36.8213 88.999 31.2959 83.4736 31.2959 76.6577V42.8838Z" fill="#082214"/>
<ellipse cx="48.5888" cy="22.9074" rx="17.7343" ry="18.0451" fill="#082214"/>
<path d="M73.0463 47.8072L77.9443 20.6755C77.97 20.5727 78.0343 20.5213 78.1371 20.5213H83.8643C83.9671 20.5213 84.0314 20.5727 84.0571 20.6755L88.7622 47.8072C88.7751 47.9357 88.7237 48 88.608 48H84.2307C84.1021 48 84.0314 47.9357 84.0186 47.8072L83.5943 44.9147H78.2143L77.79 47.8072C77.7772 47.9357 77.7129 48 77.5972 48H73.2006C73.0978 48 73.0463 47.9357 73.0463 47.8072ZM81.1839 29.6037L80.9525 28.1382L80.779 29.6037L79.0049 40.6916H82.8037L81.1839 29.6037ZM97.6519 48.3857C96.2249 48.3857 94.9393 48.0321 93.7952 47.3251C92.6382 46.618 91.7062 45.6667 90.9991 44.4712C90.3049 43.2756 89.9578 41.9386 89.9578 40.4602V27.9453C89.9578 26.5055 90.3113 25.1943 91.0184 24.0115C91.7126 22.816 92.6446 21.8647 93.8145 21.1576C94.9843 20.4377 96.2635 20.0777 97.6519 20.0777C99.1045 20.0777 100.416 20.4248 101.586 21.119C102.756 21.8261 103.681 22.771 104.362 23.9537C105.057 25.1364 105.404 26.467 105.404 27.9453V29.758C105.404 29.8608 105.339 29.9122 105.211 29.9122H100.776C100.673 29.9122 100.621 29.8608 100.621 29.758V28.2539C100.621 27.2511 100.339 26.422 99.773 25.7663C99.2074 25.1107 98.5003 24.7829 97.6519 24.7829C96.8934 24.7829 96.2185 25.0978 95.6271 25.7278C95.0358 26.3577 94.7401 27.0969 94.7401 27.9453V40.4602C94.7401 41.3215 95.0293 42.0672 95.6078 42.6971C96.1863 43.3142 96.8677 43.6227 97.6519 43.6227C98.5003 43.6227 99.2074 43.3206 99.773 42.7164C100.339 42.0993 100.621 41.3473 100.621 40.4602V38.5126H97.864C97.7226 38.5126 97.6519 38.4483 97.6519 38.3198V33.9039C97.6519 33.7753 97.7226 33.7111 97.864 33.7111H105.249C105.352 33.7111 105.404 33.7753 105.404 33.9039V40.4602C105.404 41.9386 105.057 43.2756 104.362 44.4712C103.655 45.6667 102.723 46.618 101.566 47.3251C100.409 48.0321 99.1045 48.3857 97.6519 48.3857Z" fill="#082214"/>
<path d="M82.8037 82.0303H78.3493C78.2336 82.0303 78.1757 81.966 78.1757 81.8374V59.3145H73.0463C72.9178 59.3145 72.8535 59.2502 72.8535 59.1217L72.8921 54.7058C72.8921 54.603 72.9435 54.5515 73.0463 54.5515H88.0488C88.1902 54.5515 88.2609 54.603 88.2609 54.7058V59.1217C88.2609 59.2502 88.2095 59.3145 88.1066 59.3145H82.9194L82.958 81.8374C82.958 81.966 82.9065 82.0303 82.8037 82.0303ZM103.109 82.0303H90.3435C90.2406 82.0303 90.1892 81.966 90.1892 81.8374L90.2278 54.7058C90.2278 54.603 90.2792 54.5515 90.382 54.5515H103.07C103.173 54.5515 103.225 54.6158 103.225 54.7444V59.1603C103.225 59.2631 103.173 59.3145 103.07 59.3145H94.9715V65.4852H103.07C103.173 65.4852 103.225 65.5366 103.225 65.6394L103.263 70.1132C103.263 70.216 103.212 70.2674 103.109 70.2674H94.9715V77.1709H103.109C103.212 77.1709 103.263 77.2352 103.263 77.3637V81.876C103.263 81.9789 103.212 82.0303 103.109 82.0303ZM105.442 81.8374L110.34 54.7058C110.366 54.603 110.43 54.5515 110.533 54.5515H116.26C116.363 54.5515 116.427 54.603 116.453 54.7058L121.158 81.8374C121.171 81.966 121.12 82.0303 121.004 82.0303H116.627C116.498 82.0303 116.427 81.966 116.415 81.8374L115.99 78.9449H110.61L110.186 81.8374C110.173 81.966 110.109 82.0303 109.993 82.0303H105.597C105.494 82.0303 105.442 81.966 105.442 81.8374ZM113.58 63.634L113.348 62.1685L113.175 63.634L111.401 74.7219H115.2L113.58 63.634ZM130.086 82.4159C128.659 82.4159 127.355 82.056 126.172 81.3361C125.002 80.6162 124.07 79.652 123.376 78.4436C122.694 77.2223 122.354 75.866 122.354 74.3748L122.392 62.0528C122.392 60.5872 122.727 59.2631 123.395 58.0804C124.064 56.8848 124.983 55.9271 126.153 55.2072C127.335 54.4744 128.647 54.108 130.086 54.108C131.552 54.108 132.857 54.4615 134.001 55.1686C135.158 55.8757 136.077 56.8334 136.758 58.0418C137.453 59.2374 137.8 60.5744 137.8 62.0528V63.8654C137.8 63.9682 137.748 64.0197 137.645 64.0197H133.21C133.107 64.0197 133.056 63.9682 133.056 63.8654V62.0528C133.056 61.1786 132.773 60.4265 132.208 59.7966C131.642 59.1667 130.935 58.8517 130.086 58.8517C129.148 58.8517 128.428 59.1731 127.927 59.8159C127.425 60.4587 127.175 61.2043 127.175 62.0528V74.3748C127.175 75.339 127.457 76.1296 128.023 76.7466C128.589 77.3509 129.277 77.653 130.086 77.653C130.935 77.653 131.642 77.3187 132.208 76.6502C132.773 75.9689 133.056 75.2104 133.056 74.3748V72.5429C133.056 72.44 133.107 72.3886 133.21 72.3886H137.684C137.787 72.3886 137.838 72.44 137.838 72.5429V74.3748C137.838 75.8532 137.491 77.203 136.797 78.4243C136.09 79.6327 135.158 80.6033 134.001 81.3361C132.844 82.056 131.539 82.4159 130.086 82.4159ZM145.34 82.0303H140.866C140.763 82.0303 140.712 81.966 140.712 81.8374L140.75 54.7058C140.75 54.603 140.814 54.5515 140.943 54.5515H145.34C145.468 54.5515 145.532 54.603 145.532 54.7058L145.494 65.4466H151.414V54.7058C151.414 54.603 151.465 54.5515 151.568 54.5515H155.965C156.093 54.5515 156.157 54.603 156.157 54.7058L156.235 81.8374C156.235 81.966 156.17 82.0303 156.042 82.0303H151.607C151.478 82.0303 151.414 81.966 151.414 81.8374V70.2289H145.494V81.8374C145.494 81.966 145.442 82.0303 145.34 82.0303Z" fill="#082214"/>
</svg>
