<svg width="570" height="101" viewBox="0 0 570 101" fill="none" xmlns="http://www.w3.org/2000/svg">
<path d="M0 5.8232C0 2.60656 3.98703 0 8.90625 0H561.094C566.013 0 570 2.60656 570 5.8232V100.938L558.125 93.1742L546.25 100.938L534.375 93.1742L522.5 100.938L510.625 93.1742L498.75 100.938L486.875 93.1742L475 100.938L463.125 93.1742L451.25 100.938L439.375 93.1742L427.5 100.938L415.625 93.1742L403.75 100.938L391.875 93.1742L380 100.938L368.125 93.1742L356.25 100.938L344.375 93.1742L332.5 100.938L320.625 93.1742L308.75 100.938L296.875 93.1742L285 100.938L273.125 93.1742L261.25 100.938L249.375 93.1742L237.5 100.938L225.625 93.1742L213.75 100.938L201.875 93.1742L190 100.938L178.125 93.1742L166.25 100.938L154.375 93.1742L142.5 100.938L130.625 93.1742L118.75 100.938L106.875 93.1742L95 100.938L83.125 93.1742L71.25 100.938L59.375 93.1742L47.5 100.938L35.625 93.1742L23.75 100.938L11.875 93.1742L0 100.938V5.8232Z" fill="black" fill-opacity="0.03"/>
</svg>
